<svg xmlns="http://www.w3.org/2000/svg" version="1.1" xmlns:xlink="http://www.w3.org/1999/xlink" xmlns:svgjs="http://svgjs.dev/svgjs" viewBox="0 0 7.753443707227343 1.8056518858362112"><g transform="matrix(1,0,0,1,0.29507594291810557,0.5423259429181055)"><rect width="7.753443707227343" height="7.753443707227343" x="-0.29507594291810557" y="-3.5162218536136716" fill="#102036"></rect><g><path d=" M 0.368 0.7199999999999999 Q 0.299 0.7199999999999999 0.23650000000000002 0.6954999999999999 Q 0.17400000000000002 0.6709999999999998 0.126 0.6234999999999998 Q 0.078 0.5759999999999998 0.0505 0.5084999999999998 Q 0.023 0.44099999999999984 0.023 0.35399999999999987 Q 0.023 0.27899999999999986 0.051000000000000004 0.21499999999999986 Q 0.079 0.1509999999999998 0.1285 0.10249999999999981 Q 0.178 0.053999999999999826 0.244 0.026999999999999802 Q 0.31 -1.1102230246251565e-16 0.387 -1.1102230246251565e-16 Q 0.483 -1.1102230246251565e-16 0.561 0.04149999999999987 Q 0.639 0.08299999999999985 0.677 0.1549999999999998 L 0.532 0.26599999999999985 Q 0.511 0.22399999999999987 0.46900000000000003 0.1984999999999999 Q 0.427 0.17299999999999982 0.38 0.17299999999999982 Q 0.34500000000000003 0.17299999999999982 0.316 0.18699999999999983 Q 0.28700000000000003 0.20099999999999985 0.2655 0.22599999999999987 Q 0.244 0.25099999999999983 0.2325 0.28549999999999986 Q 0.221 0.31999999999999984 0.221 0.3609999999999999 Q 0.221 0.40299999999999986 0.233 0.43699999999999983 Q 0.245 0.47099999999999986 0.2665 0.49549999999999983 Q 0.28800000000000003 0.5199999999999998 0.318 0.5334999999999999 Q 0.34800000000000003 0.5469999999999998 0.385 0.5469999999999998 Q 0.432 0.5469999999999998 0.47500000000000003 0.5234999999999999 Q 0.518 0.4999999999999999 0.553 0.45699999999999985 L 0.553 0.6469999999999998 Q 0.47300000000000003 0.7199999999999999 0.368 0.7199999999999999 M 0.543 0.47699999999999987 L 0.41200000000000003 0.47699999999999987 L 0.41200000000000003 0.33699999999999986 L 0.704 0.33699999999999986 L 0.704 0.7149999999999999 L 0.543 0.7149999999999999 L 0.543 0.47699999999999987 M 0.967013671875 0.004999999999999893 L 1.185013671875 0.004999999999999893 L 1.4110136718750002 0.7149999999999999 L 1.213013671875 0.7149999999999999 L 1.170013671875 0.5759999999999998 L 0.981013671875 0.5759999999999998 L 0.939013671875 0.7149999999999999 L 0.740013671875 0.7149999999999999 L 0.967013671875 0.004999999999999893 M 1.139013671875 0.44599999999999984 L 1.076013671875 0.19599999999999984 L 1.010013671875 0.44599999999999984 L 1.139013671875 0.44599999999999984 M 2.010005859375 0.7149999999999999 L 2.010005859375 0.34099999999999986 L 1.891005859375 0.6039999999999999 L 1.787005859375 0.6039999999999999 L 1.668005859375 0.34099999999999986 L 1.668005859375 0.7149999999999999 L 1.473005859375 0.7149999999999999 L 1.473005859375 0.004999999999999893 L 1.686005859375 0.004999999999999893 L 1.839005859375 0.33899999999999986 L 1.993005859375 0.004999999999999893 L 2.205005859375 0.004999999999999893 L 2.205005859375 0.7149999999999999 L 2.010005859375 0.7149999999999999 M 2.836009765625 0.5449999999999998 L 2.836009765625 0.7149999999999999 L 2.330009765625 0.7149999999999999 L 2.330009765625 0.004999999999999893 L 2.827009765625 0.004999999999999893 L 2.827009765625 0.17499999999999982 L 2.5250097656249997 0.17499999999999982 L 2.5250097656249997 0.27499999999999986 L 2.7830097656249997 0.27499999999999986 L 2.7830097656249997 0.43299999999999983 L 2.5250097656249997 0.43299999999999983 L 2.5250097656249997 0.5449999999999998 L 2.836009765625 0.5449999999999998" fill="#ffffff" fill-rule="nonzero"></path></g><g><path d=" M 5.663308422953632 0.004999999999999893 L 5.663308422953632 0.7149999999999999 L 5.468308422953632 0.7149999999999999 L 5.468308422953632 0.43699999999999983 L 5.230308422953632 0.43699999999999983 L 5.230308422953632 0.7149999999999999 L 5.035308422953632 0.7149999999999999 L 5.035308422953632 0.004999999999999893 L 5.230308422953632 0.004999999999999893 L 5.230308422953632 0.26699999999999985 L 5.468308422953632 0.26699999999999985 L 5.468308422953632 0.004999999999999893 L 5.663308422953632 0.004999999999999893 M 6.098308422953632 0.7209999999999999 Q 6.0133084229536315 0.7209999999999999 5.952308422953632 0.6929999999999998 Q 5.891308422953632 0.6649999999999998 5.852808422953632 0.6159999999999999 Q 5.814308422953632 0.5669999999999998 5.796308422953632 0.5034999999999998 Q 5.778308422953632 0.43999999999999984 5.778308422953632 0.36999999999999983 L 5.778308422953632 0.004999999999999893 L 5.973308422953632 0.004999999999999893 L 5.973308422953632 0.36999999999999983 Q 5.973308422953632 0.40499999999999986 5.980308422953632 0.43699999999999983 Q 5.987308422953632 0.46899999999999986 6.002308422953632 0.4939999999999999 Q 6.017308422953632 0.5189999999999999 6.040808422953632 0.5334999999999999 Q 6.064308422953632 0.5479999999999998 6.098308422953632 0.5479999999999998 Q 6.133308422953632 0.5479999999999998 6.157308422953632 0.5334999999999999 Q 6.181308422953632 0.5189999999999999 6.195808422953632 0.4934999999999998 Q 6.210308422953632 0.46799999999999986 6.217308422953632 0.43599999999999983 Q 6.224308422953632 0.40399999999999986 6.224308422953632 0.36999999999999983 L 6.224308422953632 0.004999999999999893 L 6.419308422953632 0.004999999999999893 L 6.419308422953632 0.36999999999999983 Q 6.419308422953632 0.44399999999999984 6.399808422953632 0.5079999999999998 Q 6.380308422953632 0.5719999999999998 6.341308422953632 0.6199999999999999 Q 6.302308422953632 0.6679999999999998 6.241808422953632 0.6944999999999999 Q 6.181308422953632 0.7209999999999999 6.098308422953632 0.7209999999999999 M 7.138289379984882 0.5329999999999999 Q 7.138289379984882 0.5969999999999999 7.103789379984882 0.6369999999999999 Q 7.069289379984882 0.6769999999999998 7.011289379984882 0.6959999999999998 Q 6.9532893799848825 0.7149999999999999 6.883289379984882 0.7149999999999999 L 6.534289379984882 0.7149999999999999 L 6.534289379984882 0.004999999999999893 L 6.946289379984882 0.004999999999999893 Q 6.996289379984882 0.004999999999999893 7.032789379984882 0.03149999999999986 Q 7.069289379984882 0.05799999999999983 7.088789379984882 0.09999999999999987 Q 7.108289379984882 0.1419999999999998 7.108289379984882 0.18699999999999983 Q 7.108289379984882 0.23599999999999982 7.082789379984882 0.28199999999999986 Q 7.057289379984882 0.32799999999999985 7.006289379984882 0.35099999999999987 Q 7.067289379984882 0.36899999999999983 7.102789379984882 0.41399999999999987 Q 7.138289379984882 0.45899999999999985 7.138289379984882 0.5329999999999999 M 6.940289379984882 0.4929999999999999 Q 6.940289379984882 0.47499999999999987 6.933789379984882 0.46149999999999985 Q 6.927289379984882 0.44799999999999984 6.916289379984882 0.43999999999999984 Q 6.9052893799848825 0.43199999999999983 6.890289379984882 0.43199999999999983 L 6.729289379984882 0.43199999999999983 L 6.729289379984882 0.5509999999999998 L 6.883289379984882 0.5509999999999998 Q 6.899289379984882 0.5509999999999998 6.912289379984882 0.5439999999999998 Q 6.925289379984882 0.5369999999999999 6.932789379984882 0.5239999999999998 Q 6.940289379984882 0.5109999999999999 6.940289379984882 0.4929999999999999 M 6.729289379984882 0.17099999999999982 L 6.729289379984882 0.27999999999999986 L 6.862289379984882 0.27999999999999986 Q 6.875289379984882 0.27999999999999986 6.887289379984882 0.27549999999999986 Q 6.899289379984882 0.27099999999999985 6.907289379984882 0.25899999999999984 Q 6.915289379984882 0.24699999999999983 6.915289379984882 0.22499999999999987 Q 6.915289379984882 0.20499999999999985 6.908789379984882 0.1934999999999999 Q 6.902289379984882 0.18199999999999983 6.891789379984882 0.17649999999999988 Q 6.881289379984882 0.17099999999999982 6.868289379984882 0.17099999999999982 L 6.729289379984882 0.17099999999999982" fill="#ffffff" fill-rule="nonzero"></path></g><g></g><g clip-path="url(#SvgjsClipPath1009)"><g clip-path="url(#SvgjsClipPath10079d25b825-f16e-40a4-bb88-d980adc262a5)"><path d=" M 3.2802199797921747 0.9682348758212223 C 3.252212860077406 0.9682230197741599 3.2243767260872365 0.9638710728728377 3.1977024603814646 0.9553339513239096 L 3.158258602129423 0.9427506345809276 C 3.0895323526270255 0.9209117082210934 3.032395063707869 0.872493138283978 2.9995757183946017 0.8082815610690826 C 2.9662621095459984 0.744342360572541 2.959901515815365 0.6697360813690509 2.981910677582339 0.6010803118156482 L 3.192272880200297 -0.05794065424049338 C 3.23808597178243 -0.20092101444658078 3.391008435161078 -0.279818179180874 3.5340793205745746 -0.23428857878757675 L 3.5735231788266155 -0.2216901378658167 C 3.6459689245614664 -0.19863291852016046 3.705330821869666 -0.1460913243069451 3.7370155514127203 -0.07698199532152089 L 4.106453866413716 -0.07698199532152089 C 4.138138595956769 -0.1460913243069451 4.197500493264969 -0.19863291852016046 4.269946238999819 -0.22169013786581704 L 4.30939009725186 -0.23428857878757675 C 4.452460982665357 -0.279818179180874 4.605383446044005 -0.20092101444658078 4.651196537626139 -0.05794065424049338 L 4.86140749845632 0.6009593183854272 C 4.883416660223293 0.6696150879388305 4.87705606649266 0.7442213671423197 4.843742457644056 0.8081605676388615 C 4.810927154055576 0.8723753478228178 4.75378831981895 0.9207952272736222 4.6850595739092356 0.9426296411507065 L 4.645615715657194 0.9552129578936885 C 4.502544830243697 1.0007425582869864 4.349622366865049 0.9218453935526929 4.303809275282916 0.7788650333466054 L 4.265756841478416 0.6596260078638256 L 3.5774100927724644 0.6596260078638256 L 3.539357658967964 0.7788650333466054 C 3.503280729163586 0.8915744794494884 3.398562473175038 0.9680993588257372 3.2802199797921747 0.9682348758212223 Z M 3.4514559319124216 -0.18675328488950857 C 3.3594382628346713 -0.1866855360544073 3.277988769464343 -0.12721952191069186 3.249896001343041 -0.039595025383237226 L 3.0395489229038612 0.6194259406729037 C 3.00418529768643 0.7306449075764252 3.065524790580661 0.8495011696184445 3.17666472770179 0.8851123892594062 L 3.216108585953831 0.8977108301811658 C 3.3273274160557795 0.9330193910235287 3.4461490015652085 0.8716910301301488 3.4817950345403323 0.7605799012044585 L 3.5265777279008748 0.6203031430420058 C 3.530580440904259 0.6077594803034687 3.5422375919398625 0.599245968109575 3.555404412651024 0.5992502861835551 L 4.287944011745191 0.5992502861835551 C 4.3010773507981055 0.5992853939810119 4.312687449010159 0.607791318565843 4.316679951422675 0.6203031430420072 L 4.361462644783216 0.7605799012044592 C 4.3971086777583395 0.8716910301301497 4.5159302632677685 0.9330193910235294 4.6271490933697175 0.8977108301811665 L 4.666592951621758 0.8851123892594068 C 4.7777040805474495 0.849466356284283 4.839032441440828 0.7306447707748542 4.803723880598465 0.619425940672905 L 4.593452423053174 -0.039595025383237226 C 4.557800132506198 -0.15070791079484425 4.43896992406272 -0.21203046713299212 4.327750850287894 -0.17671083018116657 L 4.288306992035854 -0.16412751343818455 C 4.226473814998874 -0.14435750974409345 4.177229584367693 -0.09715047101820357 4.154866362680886 -0.036207209337049406 C 4.150449580870955 -0.02438601089599543 4.139158153160887 -0.01654892812872999 4.126538775830398 -0.016545776926139788 L 3.716839896923372 -0.016545776926139788 C 3.704220519592883 -0.01654892812872999 3.692929091882815 -0.02438601089599543 3.688512310072884 -0.03620720933704974 C 3.6661490883860774 -0.09715047101820357 3.6169048577548977 -0.14435750974409345 3.5550716807179166 -0.16412751343818419 L 3.515627822465877 -0.17671083018116657 C 3.494885991791314 -0.1833599266891561 3.4732374376855466 -0.18674777489236807 3.4514559319124203 -0.18675328488950824 Z" fill="#3682ae" transform="matrix(1,0,0,1,0,0)" fill-rule="nonzero"></path></g><g clip-path="url(#SvgjsClipPath10079d25b825-f16e-40a4-bb88-d980adc262a5)"><path d=" M 3.4214495612176177 0.3291778257515429 C 3.4047438546324265 0.3291778257515429 3.3912012036623715 0.31563517478148834 3.3912012036623715 0.298929468196297 L 3.3912012036623715 0.09508578663149525 C 3.3912012036623715 0.07838008004630392 3.4047438546324265 0.06483742907624906 3.4214495612176177 0.06483742907624906 C 3.438155267802809 0.06483742907624906 3.4516979187728625 0.07838008004630392 3.4516979187728625 0.09508578663149525 L 3.4516979187728625 0.298929468196297 C 3.4516979187728625 0.31563517478148834 3.438155267802809 0.3291778257515429 3.4214495612176177 0.3291778257515429 Z" fill="#3682ae" transform="matrix(1,0,0,1,0,0)" fill-rule="nonzero"></path></g><g clip-path="url(#SvgjsClipPath10079d25b825-f16e-40a4-bb88-d980adc262a5)"><path d=" M 3.523371402000019 0.22727110914791965 L 3.3195125962564394 0.22727110914791965 C 3.3028068896712477 0.22727110914791965 3.289264238701193 0.21372845817786512 3.289264238701193 0.1970227515926738 C 3.289264238701193 0.18031704500748247 3.3028068896712477 0.16677439403742794 3.3195125962564394 0.16677439403742794 L 3.523371402000019 0.16677439403742794 C 3.5400771085852094 0.16677439403742794 3.5536197595552643 0.18031704500748247 3.5536197595552643 0.1970227515926738 C 3.5536197595552643 0.21372845817786512 3.5400771085852094 0.22727110914791965 3.523371402000019 0.22727110914791965 Z" fill="#3682ae" transform="matrix(1,0,0,1,0,0)" fill-rule="nonzero"></path></g><g clip-path="url(#SvgjsClipPath10079d25b825-f16e-40a4-bb88-d980adc262a5)"><path d=" M 3.81730981654312 0.546058549422656 L 3.697284333763905 0.546058549422656 C 3.680578627178714 0.546058549422656 3.667035976208659 0.5325158984526013 3.667035976208659 0.5158101918674103 C 3.667035976208659 0.4991044852822189 3.680578627178714 0.4855618343121641 3.697284333763905 0.4855618343121641 L 3.81730981654312 0.4855618343121641 C 3.8340155231283113 0.4855618343121641 3.847558174098366 0.4991044852822189 3.847558174098366 0.5158101918674103 C 3.847558174098366 0.5325158984526013 3.8340155231283113 0.546058549422656 3.81730981654312 0.546058549422656 Z" fill="#3682ae" transform="matrix(1,0,0,1,0,0)" fill-rule="nonzero"></path></g><g clip-path="url(#SvgjsClipPath10079d25b825-f16e-40a4-bb88-d980adc262a5)"><path d=" M 4.146033842274754 0.546058549422656 L 4.026008359495538 0.546058549422656 C 4.009302652910348 0.546058549422656 3.995760001940293 0.5325158984526013 3.995760001940293 0.5158101918674103 C 3.995760001940293 0.4991044852822189 4.009302652910348 0.4855618343121641 4.026008359495538 0.4855618343121641 L 4.146033842274754 0.4855618343121641 C 4.162739548859945 0.4855618343121641 4.17628219983 0.4991044852822189 4.17628219983 0.5158101918674103 C 4.17628219983 0.5325158984526013 4.162739548859945 0.546058549422656 4.146033842274754 0.546058549422656 Z" fill="#3682ae" transform="matrix(1,0,0,1,0,0)" fill-rule="nonzero"></path></g><g clip-path="url(#SvgjsClipPath10079d25b825-f16e-40a4-bb88-d980adc262a5)"><path d=" M 4.301555772645051 0.22285484894485397 C 4.276497212767264 0.22285484894485397 4.256183236312182 0.20254087248977165 4.256183236312182 0.177482312611985 C 4.256183236312182 0.152423752734198 4.276497212767264 0.13210977627911608 4.301555772645051 0.13210977627911608 C 4.326614332522838 0.13210977627911608 4.34692830897792 0.152423752734198 4.34692830897792 0.177482312611985 C 4.34692830897792 0.20254087248977165 4.326614332522838 0.22285484894485397 4.301555772645051 0.22285484894485397 Z M 4.301555772645051 0.16235813383436193 C 4.2932029193524555 0.16235813383436193 4.2864315938674284 0.16912945931938933 4.2864315938674284 0.177482312611985 C 4.2864315938674284 0.18583516590458066 4.2932029193524555 0.19260649138960778 4.301555772645051 0.19260649138960778 C 4.309908625937647 0.19260649138960778 4.316679951422675 0.18583516590458066 4.316679951422675 0.177482312611985 C 4.316679951422675 0.16912945931938933 4.309908625937647 0.16235813383436193 4.301555772645051 0.16235813383436193 Z" fill="#3682ae" transform="matrix(1,0,0,1,0,0)" fill-rule="nonzero"></path></g><g clip-path="url(#SvgjsClipPath10079d25b825-f16e-40a4-bb88-d980adc262a5)"><path d=" M 4.49817009675415 0.22285484894485397 C 4.473111536876362 0.22285484894485397 4.45279756042128 0.20254087248977165 4.45279756042128 0.177482312611985 C 4.45279756042128 0.152423752734198 4.473111536876362 0.13210977627911608 4.49817009675415 0.13210977627911608 C 4.523228656631936 0.13210977627911608 4.543542633087018 0.152423752734198 4.543542633087018 0.177482312611985 C 4.543542633087018 0.20254087248977165 4.523228656631936 0.22285484894485397 4.49817009675415 0.22285484894485397 Z M 4.49817009675415 0.16235813383436193 C 4.4898172434615535 0.16235813383436193 4.483045917976526 0.16912945931938933 4.483045917976526 0.177482312611985 C 4.483045917976526 0.18583516590458066 4.4898172434615535 0.19260649138960778 4.49817009675415 0.19260649138960778 C 4.506522950046745 0.19260649138960778 4.513294275531772 0.18583516590458066 4.513294275531772 0.177482312611985 C 4.513294275531772 0.16912945931938933 4.506522950046745 0.16235813383436193 4.49817009675415 0.16235813383436193 Z" fill="#3682ae" transform="matrix(1,0,0,1,0,0)" fill-rule="nonzero"></path></g><g clip-path="url(#SvgjsClipPath10079d25b825-f16e-40a4-bb88-d980adc262a5)"><path d=" M 4.3998629346996 0.12454768689030454 C 4.374804374821813 0.12454768689030454 4.354490398366732 0.10423371043522262 4.354490398366732 0.07917515055743596 C 4.354490398366732 0.05411659067964897 4.374804374821813 0.03380261422456704 4.3998629346996 0.03380261422456704 C 4.424921494577387 0.03380261422456704 4.445235471032468 0.05411659067964897 4.445235471032468 0.07917515055743596 C 4.445235471032468 0.10423371043522262 4.424921494577387 0.12454768689030454 4.3998629346996 0.12454768689030454 Z M 4.3998629346996 0.06405097177981289 C 4.391510081407004 0.06405097177981289 4.384738755921977 0.0708222972648403 4.384738755921977 0.07917515055743596 C 4.384738755921977 0.08752800385003162 4.391510081407004 0.09429932933505869 4.3998629346996 0.09429932933505869 C 4.408215787992196 0.09429932933505869 4.414987113477223 0.08752800385003162 4.414987113477223 0.07917515055743596 C 4.414987113477223 0.0708222972648403 4.408215787992196 0.06405097177981289 4.3998629346996 0.06405097177981289 Z" fill="#3682ae" transform="matrix(1,0,0,1,0,0)" fill-rule="nonzero"></path></g><g clip-path="url(#SvgjsClipPath10079d25b825-f16e-40a4-bb88-d980adc262a5)"><path d=" M 4.3998629346996 0.32116201099940295 C 4.374804374821813 0.32116201099940295 4.354490398366732 0.300848034544321 4.354490398366732 0.2757894746665341 C 4.354490398366732 0.2507309147887471 4.374804374821813 0.23041693833366517 4.3998629346996 0.23041693833366517 C 4.424921494577387 0.23041693833366517 4.445235471032468 0.2507309147887471 4.445235471032468 0.2757894746665341 C 4.445235471032468 0.300848034544321 4.424921494577387 0.32116201099940295 4.3998629346996 0.32116201099940295 Z M 4.3998629346996 0.260665295888911 C 4.391510081407004 0.260665295888911 4.384738755921977 0.26743662137393837 4.384738755921977 0.2757894746665341 C 4.384738755921977 0.2841423279591297 4.391510081407004 0.2909136534441568 4.3998629346996 0.2909136534441568 C 4.408215787992196 0.2909136534441568 4.414987113477223 0.2841423279591297 4.414987113477223 0.2757894746665341 C 4.414987113477223 0.26743662137393837 4.408215787992196 0.260665295888911 4.3998629346996 0.260665295888911 Z" fill="#3682ae" transform="matrix(1,0,0,1,0,0)" fill-rule="nonzero"></path></g></g></g><defs><clipPath id="SvgjsClipPath1009"><path d=" M 2.96899462890625 -0.24724999999999991 h 1.9053137940473817 v 1.2154999999999998 h -1.9053137940473817 Z"></path></clipPath><clipPath id="SvgjsClipPath10079d25b825-f16e-40a4-bb88-d980adc262a5"><path d=" M 2.96899462890625 -0.24724999999999991 L 4.874308422953632 -0.24724999999999991 L 4.874308422953632 0.9682499999999998 L 2.96899462890625 0.9682499999999998 Z"></path></clipPath></defs></svg>